<svg xmlns="http://www.w3.org/2000/svg" xmlns:xlink="http://www.w3.org/1999/xlink" width="500" zoomAndPan="magnify" viewBox="0 0 375 374.999991" height="500" preserveAspectRatio="xMidYMid meet" version="1.0"><defs><g/><clipPath id="1004f790a3"><rect x="0" width="212" y="0" height="71"/></clipPath><clipPath id="cad5ee2ac9"><path d="M 140 160 L 199 160 L 199 211 L 140 211 Z M 140 160 " clip-rule="nonzero"/></clipPath><clipPath id="e713d1d701"><path d="M 169.648438 160.824219 L 198.0625 210.238281 L 155.152344 234.914062 L 126.738281 185.5 Z M 169.648438 160.824219 " clip-rule="nonzero"/></clipPath><clipPath id="082854a934"><path d="M 169.648438 160.824219 L 198.0625 210.238281 L 155.152344 234.914062 L 126.738281 185.5 Z M 169.648438 160.824219 " clip-rule="nonzero"/></clipPath></defs><g transform="matrix(1, 0, 0, 1, 81, 145)"><g clip-path="url(#1004f790a3)"><g fill="#1e3a5f" fill-opacity="1"><g transform="translate(1.669276, 63.718562)"><g><path d="M 12.34375 0 L 22.953125 0 L 30.015625 -14.109375 L 37.0625 0 L 47.671875 0 L 56.515625 -17.65625 L 56.515625 -42.375 L 60.015625 -45.90625 L 51.203125 -45.90625 L 52.96875 -42.375 L 52.96875 -17.65625 L 45.90625 -3.53125 L 45.90625 -10.609375 L 42.375 -17.65625 L 42.375 -42.375 L 44.140625 -45.90625 L 24.71875 -45.90625 L 28.25 -42.375 L 28.25 -17.65625 L 21.1875 -3.53125 L 21.1875 -10.609375 L 17.65625 -17.65625 L 17.65625 -42.375 L 19.421875 -45.90625 L 0 -45.90625 L 3.53125 -42.375 L 3.53125 -17.65625 Z M 12.34375 0 "/></g></g></g><g fill="#1e3a5f" fill-opacity="1"><g transform="translate(67.865625, 63.718562)"><g/></g></g><g fill="#1e3a5f" fill-opacity="1"><g transform="translate(85.516344, 63.718562)"><g/></g></g><g fill="#1e3a5f" fill-opacity="1"><g transform="translate(103.167063, 63.718562)"><g/></g></g><g fill="#1e3a5f" fill-opacity="1"><g transform="translate(120.822709, 63.718562)"><g><path d="M 0 0 L 35.296875 0 L 35.296875 -7.0625 L 31.796875 -3.53125 L 15.890625 -3.53125 L 37.0625 -45.90625 L 3.53125 -45.90625 L 3.53125 -38.84375 L 7.0625 -42.375 L 21.1875 -42.375 Z M 0 0 "/></g></g></g><g fill="#1e3a5f" fill-opacity="1"><g transform="translate(165.833185, 63.718562)"><g><path d="M 0 0 L 8.84375 0 L 7.0625 -3.53125 L 7.0625 -35.296875 L 24.71875 0 L 37.0625 0 L 35.296875 -3.53125 L 35.296875 -42.375 L 38.84375 -45.90625 L 30.015625 -45.90625 L 31.796875 -42.375 L 31.796875 -14.109375 L 15.890625 -45.90625 L 1.765625 -45.90625 L 3.53125 -42.375 L 3.53125 -3.53125 Z M 0 0 "/></g></g></g></g></g><g fill="#1e3a5f" fill-opacity="1"><g transform="translate(109.700636, 232.526322)"><g><path d="M 4.90625 -7.09375 C 4.875 -7.113281 4.832031 -7.140625 4.78125 -7.171875 C 4.726562 -7.210938 4.648438 -7.25 4.546875 -7.28125 C 4.453125 -7.320312 4.328125 -7.351562 4.171875 -7.375 C 4.015625 -7.394531 3.820312 -7.398438 3.59375 -7.390625 L 3.59375 -8.53125 C 3.925781 -8.53125 4.265625 -8.492188 4.609375 -8.421875 C 4.953125 -8.359375 5.234375 -8.257812 5.453125 -8.125 C 5.398438 -8.03125 5.34375 -7.921875 5.28125 -7.796875 C 5.226562 -7.679688 5.171875 -7.570312 5.109375 -7.46875 C 5.054688 -7.363281 5.007812 -7.273438 4.96875 -7.203125 C 4.9375 -7.140625 4.914062 -7.101562 4.90625 -7.09375 Z M 0.984375 -6.1875 C 0.984375 -6.519531 1.039062 -6.816406 1.15625 -7.078125 C 1.269531 -7.347656 1.421875 -7.582031 1.609375 -7.78125 C 1.804688 -7.988281 2.035156 -8.148438 2.296875 -8.265625 C 2.554688 -8.390625 2.832031 -8.46875 3.125 -8.5 L 3.125 -7.3125 C 2.882812 -7.226562 2.679688 -7.078125 2.515625 -6.859375 C 2.359375 -6.648438 2.28125 -6.441406 2.28125 -6.234375 C 2.28125 -5.941406 2.359375 -5.703125 2.515625 -5.515625 C 2.679688 -5.335938 2.882812 -5.175781 3.125 -5.03125 L 3.125 -3.734375 C 2.875 -3.859375 2.625 -3.988281 2.375 -4.125 C 2.125 -4.269531 1.894531 -4.4375 1.6875 -4.625 C 1.476562 -4.8125 1.304688 -5.03125 1.171875 -5.28125 C 1.046875 -5.539062 0.984375 -5.84375 0.984375 -6.1875 Z M 1.15625 -1.53125 C 1.269531 -1.476562 1.40625 -1.421875 1.5625 -1.359375 C 1.726562 -1.304688 1.898438 -1.253906 2.078125 -1.203125 C 2.253906 -1.148438 2.425781 -1.109375 2.59375 -1.078125 C 2.769531 -1.046875 2.9375 -1.03125 3.09375 -1.03125 L 3.125 -1.03125 L 3.125 0.046875 L 3.09375 0.046875 C 2.914062 0.046875 2.726562 0.0351562 2.53125 0.015625 C 2.34375 -0.00390625 2.148438 -0.0351562 1.953125 -0.078125 C 1.753906 -0.117188 1.5625 -0.179688 1.375 -0.265625 C 1.195312 -0.347656 1.046875 -0.445312 0.921875 -0.5625 Z M 3.59375 -4.8125 C 3.84375 -4.695312 4.097656 -4.570312 4.359375 -4.4375 C 4.617188 -4.3125 4.851562 -4.15625 5.0625 -3.96875 C 5.28125 -3.78125 5.457031 -3.550781 5.59375 -3.28125 C 5.726562 -3.019531 5.796875 -2.691406 5.796875 -2.296875 C 5.796875 -2.023438 5.742188 -1.757812 5.640625 -1.5 C 5.546875 -1.238281 5.40625 -1.003906 5.21875 -0.796875 C 5.03125 -0.585938 4.796875 -0.410156 4.515625 -0.265625 C 4.242188 -0.128906 3.9375 -0.0351562 3.59375 0.015625 L 3.59375 -1.078125 C 4.21875 -1.234375 4.53125 -1.648438 4.53125 -2.328125 C 4.53125 -2.585938 4.441406 -2.804688 4.265625 -2.984375 C 4.085938 -3.160156 3.863281 -3.320312 3.59375 -3.46875 Z M 3.59375 -4.8125 "/></g></g></g><g fill="#1e3a5f" fill-opacity="1"><g transform="translate(118.639158, 232.526322)"><g><path d="M 2.46875 0 L 1.078125 0 L 1.078125 -8.40625 L 2.46875 -8.40625 Z M 2.46875 0 "/></g></g></g><g fill="#1e3a5f" fill-opacity="1"><g transform="translate(124.913152, 232.526322)"><g><path d="M 4.90625 -7.09375 C 4.875 -7.113281 4.832031 -7.140625 4.78125 -7.171875 C 4.726562 -7.210938 4.648438 -7.25 4.546875 -7.28125 C 4.453125 -7.320312 4.328125 -7.351562 4.171875 -7.375 C 4.015625 -7.394531 3.820312 -7.398438 3.59375 -7.390625 L 3.59375 -8.53125 C 3.925781 -8.53125 4.265625 -8.492188 4.609375 -8.421875 C 4.953125 -8.359375 5.234375 -8.257812 5.453125 -8.125 C 5.398438 -8.03125 5.34375 -7.921875 5.28125 -7.796875 C 5.226562 -7.679688 5.171875 -7.570312 5.109375 -7.46875 C 5.054688 -7.363281 5.007812 -7.273438 4.96875 -7.203125 C 4.9375 -7.140625 4.914062 -7.101562 4.90625 -7.09375 Z M 0.984375 -6.1875 C 0.984375 -6.519531 1.039062 -6.816406 1.15625 -7.078125 C 1.269531 -7.347656 1.421875 -7.582031 1.609375 -7.78125 C 1.804688 -7.988281 2.035156 -8.148438 2.296875 -8.265625 C 2.554688 -8.390625 2.832031 -8.46875 3.125 -8.5 L 3.125 -7.3125 C 2.882812 -7.226562 2.679688 -7.078125 2.515625 -6.859375 C 2.359375 -6.648438 2.28125 -6.441406 2.28125 -6.234375 C 2.28125 -5.941406 2.359375 -5.703125 2.515625 -5.515625 C 2.679688 -5.335938 2.882812 -5.175781 3.125 -5.03125 L 3.125 -3.734375 C 2.875 -3.859375 2.625 -3.988281 2.375 -4.125 C 2.125 -4.269531 1.894531 -4.4375 1.6875 -4.625 C 1.476562 -4.8125 1.304688 -5.03125 1.171875 -5.28125 C 1.046875 -5.539062 0.984375 -5.84375 0.984375 -6.1875 Z M 1.15625 -1.53125 C 1.269531 -1.476562 1.40625 -1.421875 1.5625 -1.359375 C 1.726562 -1.304688 1.898438 -1.253906 2.078125 -1.203125 C 2.253906 -1.148438 2.425781 -1.109375 2.59375 -1.078125 C 2.769531 -1.046875 2.9375 -1.03125 3.09375 -1.03125 L 3.125 -1.03125 L 3.125 0.046875 L 3.09375 0.046875 C 2.914062 0.046875 2.726562 0.0351562 2.53125 0.015625 C 2.34375 -0.00390625 2.148438 -0.0351562 1.953125 -0.078125 C 1.753906 -0.117188 1.5625 -0.179688 1.375 -0.265625 C 1.195312 -0.347656 1.046875 -0.445312 0.921875 -0.5625 Z M 3.59375 -4.8125 C 3.84375 -4.695312 4.097656 -4.570312 4.359375 -4.4375 C 4.617188 -4.3125 4.851562 -4.15625 5.0625 -3.96875 C 5.28125 -3.78125 5.457031 -3.550781 5.59375 -3.28125 C 5.726562 -3.019531 5.796875 -2.691406 5.796875 -2.296875 C 5.796875 -2.023438 5.742188 -1.757812 5.640625 -1.5 C 5.546875 -1.238281 5.40625 -1.003906 5.21875 -0.796875 C 5.03125 -0.585938 4.796875 -0.410156 4.515625 -0.265625 C 4.242188 -0.128906 3.9375 -0.0351562 3.59375 0.015625 L 3.59375 -1.078125 C 4.21875 -1.234375 4.53125 -1.648438 4.53125 -2.328125 C 4.53125 -2.585938 4.441406 -2.804688 4.265625 -2.984375 C 4.085938 -3.160156 3.863281 -3.320312 3.59375 -3.46875 Z M 3.59375 -4.8125 "/></g></g></g><g fill="#1e3a5f" fill-opacity="1"><g transform="translate(133.851673, 232.526322)"><g><path d="M 6.96875 -8.40625 L 6.96875 -7.46875 L 4.46875 -7.46875 L 4.46875 0 L 3.09375 0 L 3.09375 -7.46875 L 0.578125 -7.46875 L 0.578125 -8.40625 Z M 6.96875 -8.40625 "/></g></g></g><g fill="#1e3a5f" fill-opacity="1"><g transform="translate(144.168006, 232.526322)"><g><path d="M 1.078125 -8.40625 L 2.46875 -8.40625 L 2.46875 0 L 1.078125 0 Z M 5.984375 -3.78125 L 2.9375 -3.78125 L 2.9375 -4.71875 L 5.984375 -4.71875 Z M 2.9375 -1.03125 L 6.34375 -1.03125 L 6.34375 0 L 2.9375 0 Z M 6.34375 -8.40625 L 6.34375 -7.359375 L 2.9375 -7.359375 L 2.9375 -8.40625 Z M 6.34375 -8.40625 "/></g></g></g><g fill="#1e3a5f" fill-opacity="1"><g transform="translate(154.085799, 232.526322)"><g><path d="M 1.046875 -8.40625 L 2.4375 -8.40625 L 4.703125 -3.21875 L 4.703125 -1.109375 L 4.328125 -1.109375 L 2.4375 -5.78125 L 2.4375 0 L 1.046875 0 Z M 7.421875 -8.40625 L 8.8125 -8.40625 L 8.8125 0 L 7.421875 0 L 7.421875 -5.78125 L 5.546875 -1.109375 L 5.15625 -1.109375 L 5.15625 -3.1875 Z M 7.421875 -8.40625 "/></g></g></g><g fill="#1e3a5f" fill-opacity="1"><g transform="translate(166.70228, 232.526322)"><g/></g></g><g fill="#1e3a5f" fill-opacity="1"><g transform="translate(172.589121, 232.526322)"><g><path d="M 7.4375 0 L 6.015625 0 L 5.234375 -0.984375 C 5.035156 -0.722656 4.789062 -0.503906 4.5 -0.328125 C 4.207031 -0.148438 3.867188 -0.03125 3.484375 0.03125 L 3.484375 -0.96875 C 3.785156 -1.050781 4.019531 -1.175781 4.1875 -1.34375 C 4.351562 -1.519531 4.492188 -1.675781 4.609375 -1.8125 C 4.421875 -2.03125 4.234375 -2.25 4.046875 -2.46875 C 3.859375 -2.6875 3.671875 -2.898438 3.484375 -3.109375 L 3.484375 -5.03125 C 3.816406 -5.195312 4.066406 -5.410156 4.234375 -5.671875 C 4.398438 -5.929688 4.484375 -6.191406 4.484375 -6.453125 C 4.484375 -6.742188 4.382812 -6.96875 4.1875 -7.125 C 4 -7.28125 3.765625 -7.363281 3.484375 -7.375 L 3.484375 -8.484375 C 3.753906 -8.484375 4.007812 -8.441406 4.25 -8.359375 C 4.5 -8.273438 4.71875 -8.148438 4.90625 -7.984375 C 5.101562 -7.816406 5.257812 -7.609375 5.375 -7.359375 C 5.488281 -7.109375 5.546875 -6.8125 5.546875 -6.46875 C 5.535156 -6.175781 5.484375 -5.910156 5.390625 -5.671875 C 5.296875 -5.429688 5.175781 -5.210938 5.03125 -5.015625 C 4.882812 -4.828125 4.722656 -4.660156 4.546875 -4.515625 C 4.367188 -4.378906 4.191406 -4.269531 4.015625 -4.1875 C 4.160156 -3.976562 4.34375 -3.75 4.5625 -3.5 C 4.789062 -3.257812 5.007812 -3.023438 5.21875 -2.796875 C 5.300781 -2.921875 5.378906 -3.050781 5.453125 -3.1875 C 5.535156 -3.332031 5.617188 -3.503906 5.703125 -3.703125 L 6.59375 -3.34375 C 6.507812 -3.09375 6.40625 -2.847656 6.28125 -2.609375 C 6.164062 -2.378906 6.039062 -2.148438 5.90625 -1.921875 Z M 1.390625 -6.546875 C 1.390625 -6.785156 1.425781 -7.003906 1.5 -7.203125 C 1.582031 -7.410156 1.691406 -7.597656 1.828125 -7.765625 C 1.972656 -7.941406 2.144531 -8.085938 2.34375 -8.203125 C 2.550781 -8.316406 2.773438 -8.398438 3.015625 -8.453125 L 3.015625 -7.28125 C 2.867188 -7.21875 2.742188 -7.125 2.640625 -7 C 2.546875 -6.875 2.5 -6.722656 2.5 -6.546875 C 2.5 -6.285156 2.550781 -6.054688 2.65625 -5.859375 C 2.769531 -5.660156 2.890625 -5.488281 3.015625 -5.34375 L 3.015625 -3.625 C 2.640625 -3.375 2.363281 -3.101562 2.1875 -2.8125 C 2.019531 -2.519531 1.9375 -2.238281 1.9375 -1.96875 C 1.9375 -1.882812 1.953125 -1.78125 1.984375 -1.65625 C 2.023438 -1.539062 2.085938 -1.425781 2.171875 -1.3125 C 2.253906 -1.207031 2.359375 -1.113281 2.484375 -1.03125 C 2.617188 -0.945312 2.785156 -0.90625 2.984375 -0.90625 L 3.015625 -0.90625 L 3.015625 0.078125 L 2.875 0.078125 C 2.625 0.078125 2.378906 0.0390625 2.140625 -0.03125 C 1.910156 -0.101562 1.695312 -0.222656 1.5 -0.390625 C 1.300781 -0.566406 1.140625 -0.785156 1.015625 -1.046875 C 0.890625 -1.304688 0.828125 -1.613281 0.828125 -1.96875 C 0.828125 -2.269531 0.875 -2.550781 0.96875 -2.8125 C 1.0625 -3.070312 1.179688 -3.304688 1.328125 -3.515625 C 1.484375 -3.722656 1.65625 -3.910156 1.84375 -4.078125 C 2.039062 -4.253906 2.238281 -4.40625 2.4375 -4.53125 C 2.34375 -4.613281 2.234375 -4.722656 2.109375 -4.859375 C 1.992188 -4.992188 1.878906 -5.144531 1.765625 -5.3125 C 1.660156 -5.476562 1.570312 -5.664062 1.5 -5.875 C 1.425781 -6.082031 1.390625 -6.304688 1.390625 -6.546875 Z M 1.390625 -6.546875 "/></g></g></g><g fill="#1e3a5f" fill-opacity="1"><g transform="translate(183.383702, 232.526322)"><g/></g></g><g fill="#1e3a5f" fill-opacity="1"><g transform="translate(189.270543, 232.526322)"><g><path d="M 4.90625 -7.09375 C 4.875 -7.113281 4.832031 -7.140625 4.78125 -7.171875 C 4.726562 -7.210938 4.648438 -7.25 4.546875 -7.28125 C 4.453125 -7.320312 4.328125 -7.351562 4.171875 -7.375 C 4.015625 -7.394531 3.820312 -7.398438 3.59375 -7.390625 L 3.59375 -8.53125 C 3.925781 -8.53125 4.265625 -8.492188 4.609375 -8.421875 C 4.953125 -8.359375 5.234375 -8.257812 5.453125 -8.125 C 5.398438 -8.03125 5.34375 -7.921875 5.28125 -7.796875 C 5.226562 -7.679688 5.171875 -7.570312 5.109375 -7.46875 C 5.054688 -7.363281 5.007812 -7.273438 4.96875 -7.203125 C 4.9375 -7.140625 4.914062 -7.101562 4.90625 -7.09375 Z M 0.984375 -6.1875 C 0.984375 -6.519531 1.039062 -6.816406 1.15625 -7.078125 C 1.269531 -7.347656 1.421875 -7.582031 1.609375 -7.78125 C 1.804688 -7.988281 2.035156 -8.148438 2.296875 -8.265625 C 2.554688 -8.390625 2.832031 -8.46875 3.125 -8.5 L 3.125 -7.3125 C 2.882812 -7.226562 2.679688 -7.078125 2.515625 -6.859375 C 2.359375 -6.648438 2.28125 -6.441406 2.28125 -6.234375 C 2.28125 -5.941406 2.359375 -5.703125 2.515625 -5.515625 C 2.679688 -5.335938 2.882812 -5.175781 3.125 -5.03125 L 3.125 -3.734375 C 2.875 -3.859375 2.625 -3.988281 2.375 -4.125 C 2.125 -4.269531 1.894531 -4.4375 1.6875 -4.625 C 1.476562 -4.8125 1.304688 -5.03125 1.171875 -5.28125 C 1.046875 -5.539062 0.984375 -5.84375 0.984375 -6.1875 Z M 1.15625 -1.53125 C 1.269531 -1.476562 1.40625 -1.421875 1.5625 -1.359375 C 1.726562 -1.304688 1.898438 -1.253906 2.078125 -1.203125 C 2.253906 -1.148438 2.425781 -1.109375 2.59375 -1.078125 C 2.769531 -1.046875 2.9375 -1.03125 3.09375 -1.03125 L 3.125 -1.03125 L 3.125 0.046875 L 3.09375 0.046875 C 2.914062 0.046875 2.726562 0.0351562 2.53125 0.015625 C 2.34375 -0.00390625 2.148438 -0.0351562 1.953125 -0.078125 C 1.753906 -0.117188 1.5625 -0.179688 1.375 -0.265625 C 1.195312 -0.347656 1.046875 -0.445312 0.921875 -0.5625 Z M 3.59375 -4.8125 C 3.84375 -4.695312 4.097656 -4.570312 4.359375 -4.4375 C 4.617188 -4.3125 4.851562 -4.15625 5.0625 -3.96875 C 5.28125 -3.78125 5.457031 -3.550781 5.59375 -3.28125 C 5.726562 -3.019531 5.796875 -2.691406 5.796875 -2.296875 C 5.796875 -2.023438 5.742188 -1.757812 5.640625 -1.5 C 5.546875 -1.238281 5.40625 -1.003906 5.21875 -0.796875 C 5.03125 -0.585938 4.796875 -0.410156 4.515625 -0.265625 C 4.242188 -0.128906 3.9375 -0.0351562 3.59375 0.015625 L 3.59375 -1.078125 C 4.21875 -1.234375 4.53125 -1.648438 4.53125 -2.328125 C 4.53125 -2.585938 4.441406 -2.804688 4.265625 -2.984375 C 4.085938 -3.160156 3.863281 -3.320312 3.59375 -3.46875 Z M 3.59375 -4.8125 "/></g></g></g><g fill="#1e3a5f" fill-opacity="1"><g transform="translate(198.209065, 232.526322)"><g><path d="M 6.96875 -8.40625 L 6.96875 -7.46875 L 4.46875 -7.46875 L 4.46875 0 L 3.09375 0 L 3.09375 -7.46875 L 0.578125 -7.46875 L 0.578125 -8.40625 Z M 6.96875 -8.40625 "/></g></g></g><g fill="#1e3a5f" fill-opacity="1"><g transform="translate(208.525398, 232.526322)"><g><path d="M 1.03125 -8.40625 L 2.390625 -8.40625 L 2.390625 0 L 1.03125 0 Z M 6.71875 0 L 5.28125 0 L 3.6875 -3.046875 C 3.664062 -3.046875 3.640625 -3.039062 3.609375 -3.03125 C 3.585938 -3.03125 3.550781 -3.03125 3.5 -3.03125 C 3.445312 -3.03125 3.367188 -3.03125 3.265625 -3.03125 C 3.160156 -3.03125 3.023438 -3.03125 2.859375 -3.03125 L 2.859375 -4.03125 L 3.640625 -4.03125 C 3.804688 -4.03125 3.972656 -4.054688 4.140625 -4.109375 C 4.304688 -4.171875 4.457031 -4.265625 4.59375 -4.390625 C 4.726562 -4.523438 4.835938 -4.707031 4.921875 -4.9375 C 5.003906 -5.164062 5.046875 -5.453125 5.046875 -5.796875 C 5.046875 -5.929688 5.023438 -6.085938 4.984375 -6.265625 C 4.953125 -6.453125 4.875 -6.625 4.75 -6.78125 C 4.632812 -6.945312 4.46875 -7.082031 4.25 -7.1875 C 4.039062 -7.300781 3.765625 -7.359375 3.421875 -7.359375 L 2.859375 -7.359375 L 2.859375 -8.40625 L 3.4375 -8.40625 C 3.800781 -8.40625 4.15625 -8.347656 4.5 -8.234375 C 4.851562 -8.117188 5.164062 -7.945312 5.4375 -7.71875 C 5.71875 -7.488281 5.941406 -7.210938 6.109375 -6.890625 C 6.285156 -6.566406 6.375 -6.203125 6.375 -5.796875 C 6.375 -5.191406 6.234375 -4.675781 5.953125 -4.25 C 5.671875 -3.820312 5.289062 -3.507812 4.8125 -3.3125 Z M 6.71875 0 "/></g></g></g><g fill="#1e3a5f" fill-opacity="1"><g transform="translate(218.80757, 232.526322)"><g><path d="M 7.9375 0 L 6.515625 0 L 4.34375 -6.296875 L 2.140625 0 L 0.71875 0 L 3.65625 -8.390625 L 5.015625 -8.390625 Z M 5.09375 -2.671875 L 5.421875 -1.75 L 3.25 -1.75 L 3.5625 -2.671875 Z M 5.09375 -2.671875 "/></g></g></g><g fill="#1e3a5f" fill-opacity="1"><g transform="translate(230.217043, 232.526322)"><g><path d="M 6.96875 -8.40625 L 6.96875 -7.46875 L 4.46875 -7.46875 L 4.46875 0 L 3.09375 0 L 3.09375 -7.46875 L 0.578125 -7.46875 L 0.578125 -8.40625 Z M 6.96875 -8.40625 "/></g></g></g><g fill="#1e3a5f" fill-opacity="1"><g transform="translate(240.533376, 232.526322)"><g><path d="M 1.078125 -8.40625 L 2.46875 -8.40625 L 2.46875 0 L 1.078125 0 Z M 5.984375 -3.78125 L 2.9375 -3.78125 L 2.9375 -4.71875 L 5.984375 -4.71875 Z M 2.9375 -1.03125 L 6.34375 -1.03125 L 6.34375 0 L 2.9375 0 Z M 6.34375 -8.40625 L 6.34375 -7.359375 L 2.9375 -7.359375 L 2.9375 -8.40625 Z M 6.34375 -8.40625 "/></g></g></g><g fill="#1e3a5f" fill-opacity="1"><g transform="translate(250.451169, 232.526322)"><g><path d="M 5.796875 -6.78125 C 5.609375 -7 5.394531 -7.15625 5.15625 -7.25 C 4.925781 -7.351562 4.6875 -7.40625 4.4375 -7.40625 L 4.390625 -7.40625 L 4.390625 -8.53125 L 4.40625 -8.53125 C 4.851562 -8.53125 5.273438 -8.453125 5.671875 -8.296875 C 6.066406 -8.148438 6.421875 -7.925781 6.734375 -7.625 Z M 0.90625 -4.234375 C 0.90625 -4.890625 0.976562 -5.46875 1.125 -5.96875 C 1.28125 -6.476562 1.488281 -6.910156 1.75 -7.265625 C 2.019531 -7.617188 2.335938 -7.894531 2.703125 -8.09375 C 3.078125 -8.300781 3.484375 -8.429688 3.921875 -8.484375 L 3.921875 -7.359375 C 3.691406 -7.296875 3.476562 -7.191406 3.28125 -7.046875 C 3.09375 -6.898438 2.921875 -6.695312 2.765625 -6.4375 C 2.617188 -6.1875 2.503906 -5.878906 2.421875 -5.515625 C 2.335938 -5.160156 2.296875 -4.734375 2.296875 -4.234375 C 2.296875 -3.742188 2.335938 -3.3125 2.421875 -2.9375 C 2.503906 -2.5625 2.617188 -2.238281 2.765625 -1.96875 C 2.921875 -1.707031 3.09375 -1.492188 3.28125 -1.328125 C 3.476562 -1.171875 3.691406 -1.0625 3.921875 -1 L 3.921875 0.03125 C 3.484375 -0.0195312 3.078125 -0.148438 2.703125 -0.359375 C 2.335938 -0.566406 2.019531 -0.847656 1.75 -1.203125 C 1.488281 -1.566406 1.28125 -2 1.125 -2.5 C 0.976562 -3.007812 0.90625 -3.585938 0.90625 -4.234375 Z M 7.171875 -4.328125 L 7.171875 -1.078125 C 6.992188 -0.859375 6.796875 -0.675781 6.578125 -0.53125 C 6.359375 -0.394531 6.128906 -0.28125 5.890625 -0.1875 C 5.660156 -0.101562 5.414062 -0.0390625 5.15625 0 C 4.90625 0.0390625 4.65625 0.0625 4.40625 0.0625 L 4.390625 0.0625 L 4.390625 -0.953125 C 4.484375 -0.953125 4.59375 -0.957031 4.71875 -0.96875 C 4.851562 -0.976562 4.988281 -0.992188 5.125 -1.015625 C 5.269531 -1.046875 5.40625 -1.082031 5.53125 -1.125 C 5.65625 -1.175781 5.75 -1.242188 5.8125 -1.328125 L 5.8125 -3.390625 L 4.390625 -3.390625 L 4.390625 -4.328125 Z M 7.171875 -4.328125 "/></g></g></g><g fill="#1e3a5f" fill-opacity="1"><g transform="translate(261.302685, 232.526322)"><g><path d="M 2.46875 0 L 1.078125 0 L 1.078125 -8.40625 L 2.46875 -8.40625 Z M 2.46875 0 "/></g></g></g><g clip-path="url(#cad5ee2ac9)"><g clip-path="url(#e713d1d701)"><g clip-path="url(#082854a934)"><path fill="#1e3a5f" d="M 169.640625 160.832031 L 172.035156 164.988281 L 148.164062 206.164062 L 150.773438 206.167969 L 173.332031 167.25 L 175.722656 171.410156 L 155.570312 206.175781 L 158.179688 206.179688 L 177.023438 173.671875 L 179.417969 177.828125 L 160.570312 210.339844 L 140.957031 210.308594 Z M 180.714844 180.089844 L 186.796875 190.671875 L 177.789062 206.214844 L 180.398438 206.222656 L 188.101562 192.933594 L 190.492188 197.089844 L 182.789062 210.378906 L 170.585938 210.359375 L 182 190.664062 L 180.699219 188.402344 L 167.976562 210.351562 L 163.179688 210.347656 Z M 191.792969 199.351562 L 198.148438 210.40625 L 185.398438 210.386719 Z M 191.792969 199.351562 " fill-opacity="1" fill-rule="nonzero"/></g></g></g></svg>