<svg xmlns="http://www.w3.org/2000/svg" xmlns:xlink="http://www.w3.org/1999/xlink" width="500" zoomAndPan="magnify" viewBox="0 0 375 374.999991" height="500" preserveAspectRatio="xMidYMid meet" version="1.0"><defs><g/><clipPath id="bbc6c09391"><rect x="0" width="134" y="0" height="61"/></clipPath><clipPath id="c05a0e17e7"><rect x="0" width="186" y="0" height="21"/></clipPath><clipPath id="bbb884517e"><path d="M 28 136 L 117 136 L 117 214 L 28 214 Z M 28 136 " clip-rule="nonzero"/></clipPath><clipPath id="970f10b9e4"><path d="M 73.355469 136.367188 L 116.933594 213.398438 L 50.347656 251.0625 L 6.773438 174.035156 Z M 73.355469 136.367188 " clip-rule="nonzero"/></clipPath><clipPath id="7c52e51b9a"><path d="M 73.355469 136.367188 L 116.933594 213.398438 L 50.347656 251.0625 L 6.773438 174.035156 Z M 73.355469 136.367188 " clip-rule="nonzero"/></clipPath></defs><path stroke-linecap="round" transform="matrix(0, 0.75, -0.75, 0, 132.108073, 124.051984)" fill="none" stroke-linejoin="miter" d="M 0.498397 0.498264 L 142.930698 0.498264 " stroke="#1e3a5f" stroke-width="1" stroke-opacity="1" stroke-miterlimit="4"/><g transform="matrix(1, 0, 0, 1, 156, 143)"><g clip-path="url(#bbc6c09391)"><g fill="#1e3a5f" fill-opacity="1"><g transform="translate(0.32787, 44.803083)"><g><path d="M 43.53125 -29.71875 L 35.78125 0 L 27.015625 0 L 22.265625 -19.5625 L 17.359375 0 L 8.59375 0 L 1.0625 -29.71875 L 8.8125 -29.71875 L 13.078125 -8.09375 L 18.375 -29.71875 L 26.34375 -29.71875 L 31.421875 -8.09375 L 35.734375 -29.71875 Z M 43.53125 -29.71875 "/></g></g></g><g fill="#1e3a5f" fill-opacity="1"><g transform="translate(44.870096, 44.803083)"><g><path d="M 21.125 -5.25 L 10.03125 -5.25 L 8.25 0 L 0.671875 0 L 11.4375 -29.71875 L 19.8125 -29.71875 L 30.578125 0 L 22.90625 0 Z M 19.265625 -10.84375 L 15.578125 -21.71875 L 11.9375 -10.84375 Z M 19.265625 -10.84375 "/></g></g></g><g fill="#1e3a5f" fill-opacity="1"><g transform="translate(76.075063, 44.803083)"><g><path d="M 10.328125 -5.921875 L 23.125 -5.921875 L 23.125 0 L 2.125 0 L 2.125 -5.5 L 14.828125 -23.796875 L 2.125 -23.796875 L 2.125 -29.71875 L 23.125 -29.71875 L 23.125 -24.21875 Z M 10.328125 -5.921875 "/></g></g></g><g fill="#1e3a5f" fill-opacity="1"><g transform="translate(101.310014, 44.803083)"><g><path d="M 29.21875 0 L 21.96875 0 L 9.859375 -18.328125 L 9.859375 0 L 2.625 0 L 2.625 -29.71875 L 9.859375 -29.71875 L 21.96875 -11.3125 L 21.96875 -29.71875 L 29.21875 -29.71875 Z M 29.21875 0 "/></g></g></g></g></g><g transform="matrix(1, 0, 0, 1, 159, 191)"><g clip-path="url(#c05a0e17e7)"><g fill="#1e3a5f" fill-opacity="1"><g transform="translate(1.074135, 15.563071)"><g><path d="M 4.296875 0.09375 C 3.628906 0.09375 3.035156 -0.0195312 2.515625 -0.25 C 1.992188 -0.488281 1.582031 -0.816406 1.28125 -1.234375 C 0.976562 -1.648438 0.828125 -2.128906 0.828125 -2.671875 L 2.21875 -2.671875 C 2.269531 -2.203125 2.460938 -1.804688 2.796875 -1.484375 C 3.140625 -1.171875 3.640625 -1.015625 4.296875 -1.015625 C 4.921875 -1.015625 5.410156 -1.164062 5.765625 -1.46875 C 6.128906 -1.78125 6.3125 -2.179688 6.3125 -2.671875 C 6.3125 -3.054688 6.203125 -3.367188 5.984375 -3.609375 C 5.773438 -3.847656 5.507812 -4.03125 5.1875 -4.15625 C 4.875 -4.28125 4.453125 -4.414062 3.921875 -4.5625 C 3.253906 -4.738281 2.722656 -4.910156 2.328125 -5.078125 C 1.929688 -5.253906 1.585938 -5.523438 1.296875 -5.890625 C 1.015625 -6.265625 0.875 -6.765625 0.875 -7.390625 C 0.875 -7.941406 1.015625 -8.425781 1.296875 -8.84375 C 1.578125 -9.269531 1.96875 -9.597656 2.46875 -9.828125 C 2.976562 -10.054688 3.554688 -10.171875 4.203125 -10.171875 C 5.148438 -10.171875 5.921875 -9.9375 6.515625 -9.46875 C 7.117188 -9 7.457031 -8.375 7.53125 -7.59375 L 6.09375 -7.59375 C 6.039062 -7.976562 5.835938 -8.316406 5.484375 -8.609375 C 5.128906 -8.898438 4.660156 -9.046875 4.078125 -9.046875 C 3.523438 -9.046875 3.078125 -8.90625 2.734375 -8.625 C 2.390625 -8.34375 2.21875 -7.945312 2.21875 -7.4375 C 2.21875 -7.070312 2.320312 -6.769531 2.53125 -6.53125 C 2.738281 -6.300781 2.992188 -6.125 3.296875 -6 C 3.597656 -5.882812 4.019531 -5.753906 4.5625 -5.609375 C 5.226562 -5.421875 5.757812 -5.238281 6.15625 -5.0625 C 6.5625 -4.882812 6.910156 -4.609375 7.203125 -4.234375 C 7.492188 -3.867188 7.640625 -3.367188 7.640625 -2.734375 C 7.640625 -2.242188 7.507812 -1.78125 7.25 -1.34375 C 6.988281 -0.914062 6.601562 -0.566406 6.09375 -0.296875 C 5.582031 -0.0351562 4.984375 0.09375 4.296875 0.09375 Z M 4.296875 0.09375 "/></g></g></g><g fill="#1e3a5f" fill-opacity="1"><g transform="translate(12.675476, 15.563071)"><g><path d="M 2.421875 -10.046875 L 2.421875 0 L 1.109375 0 L 1.109375 -10.046875 Z M 2.421875 -10.046875 "/></g></g></g><g fill="#1e3a5f" fill-opacity="1"><g transform="translate(19.362647, 15.563071)"><g><path d="M 4.296875 0.09375 C 3.628906 0.09375 3.035156 -0.0195312 2.515625 -0.25 C 1.992188 -0.488281 1.582031 -0.816406 1.28125 -1.234375 C 0.976562 -1.648438 0.828125 -2.128906 0.828125 -2.671875 L 2.21875 -2.671875 C 2.269531 -2.203125 2.460938 -1.804688 2.796875 -1.484375 C 3.140625 -1.171875 3.640625 -1.015625 4.296875 -1.015625 C 4.921875 -1.015625 5.410156 -1.164062 5.765625 -1.46875 C 6.128906 -1.78125 6.3125 -2.179688 6.3125 -2.671875 C 6.3125 -3.054688 6.203125 -3.367188 5.984375 -3.609375 C 5.773438 -3.847656 5.507812 -4.03125 5.1875 -4.15625 C 4.875 -4.28125 4.453125 -4.414062 3.921875 -4.5625 C 3.253906 -4.738281 2.722656 -4.910156 2.328125 -5.078125 C 1.929688 -5.253906 1.585938 -5.523438 1.296875 -5.890625 C 1.015625 -6.265625 0.875 -6.765625 0.875 -7.390625 C 0.875 -7.941406 1.015625 -8.425781 1.296875 -8.84375 C 1.578125 -9.269531 1.96875 -9.597656 2.46875 -9.828125 C 2.976562 -10.054688 3.554688 -10.171875 4.203125 -10.171875 C 5.148438 -10.171875 5.921875 -9.9375 6.515625 -9.46875 C 7.117188 -9 7.457031 -8.375 7.53125 -7.59375 L 6.09375 -7.59375 C 6.039062 -7.976562 5.835938 -8.316406 5.484375 -8.609375 C 5.128906 -8.898438 4.660156 -9.046875 4.078125 -9.046875 C 3.523438 -9.046875 3.078125 -8.90625 2.734375 -8.625 C 2.390625 -8.34375 2.21875 -7.945312 2.21875 -7.4375 C 2.21875 -7.070312 2.320312 -6.769531 2.53125 -6.53125 C 2.738281 -6.300781 2.992188 -6.125 3.296875 -6 C 3.597656 -5.882812 4.019531 -5.753906 4.5625 -5.609375 C 5.226562 -5.421875 5.757812 -5.238281 6.15625 -5.0625 C 6.5625 -4.882812 6.910156 -4.609375 7.203125 -4.234375 C 7.492188 -3.867188 7.640625 -3.367188 7.640625 -2.734375 C 7.640625 -2.242188 7.507812 -1.78125 7.25 -1.34375 C 6.988281 -0.914062 6.601562 -0.566406 6.09375 -0.296875 C 5.582031 -0.0351562 4.984375 0.09375 4.296875 0.09375 Z M 4.296875 0.09375 "/></g></g></g><g fill="#1e3a5f" fill-opacity="1"><g transform="translate(30.963988, 15.563071)"><g><path d="M 7.296875 -10.046875 L 7.296875 -8.96875 L 4.546875 -8.96875 L 4.546875 0 L 3.234375 0 L 3.234375 -8.96875 L 0.484375 -8.96875 L 0.484375 -10.046875 Z M 7.296875 -10.046875 "/></g></g></g><g fill="#1e3a5f" fill-opacity="1"><g transform="translate(41.902418, 15.563071)"><g><path d="M 2.421875 -8.96875 L 2.421875 -5.625 L 6.078125 -5.625 L 6.078125 -4.53125 L 2.421875 -4.53125 L 2.421875 -1.078125 L 6.515625 -1.078125 L 6.515625 0 L 1.109375 0 L 1.109375 -10.0625 L 6.515625 -10.0625 L 6.515625 -8.96875 Z M 2.421875 -8.96875 "/></g></g></g><g fill="#1e3a5f" fill-opacity="1"><g transform="translate(52.437333, 15.563071)"><g><path d="M 11.296875 -9.96875 L 11.296875 0 L 9.984375 0 L 9.984375 -7.4375 L 6.671875 0 L 5.75 0 L 2.421875 -7.453125 L 2.421875 0 L 1.109375 0 L 1.109375 -9.96875 L 2.515625 -9.96875 L 6.203125 -1.734375 L 9.890625 -9.96875 Z M 11.296875 -9.96875 "/></g></g></g><g fill="#1e3a5f" fill-opacity="1"><g transform="translate(67.9873, 15.563071)"><g/></g></g><g fill="#1e3a5f" fill-opacity="1"><g transform="translate(74.977104, 15.563071)"><g><path d="M 8.8125 0 L 7.5 -1.328125 C 7.007812 -0.816406 6.484375 -0.4375 5.921875 -0.1875 C 5.367188 0.0507812 4.742188 0.171875 4.046875 0.171875 C 3.359375 0.171875 2.742188 0.046875 2.203125 -0.203125 C 1.671875 -0.453125 1.257812 -0.804688 0.96875 -1.265625 C 0.675781 -1.722656 0.53125 -2.257812 0.53125 -2.875 C 0.53125 -3.582031 0.726562 -4.203125 1.125 -4.734375 C 1.53125 -5.265625 2.117188 -5.6875 2.890625 -6 C 2.585938 -6.363281 2.367188 -6.695312 2.234375 -7 C 2.097656 -7.3125 2.03125 -7.648438 2.03125 -8.015625 C 2.03125 -8.429688 2.132812 -8.8125 2.34375 -9.15625 C 2.5625 -9.5 2.875 -9.765625 3.28125 -9.953125 C 3.6875 -10.148438 4.15625 -10.25 4.6875 -10.25 C 5.195312 -10.25 5.644531 -10.144531 6.03125 -9.9375 C 6.414062 -9.738281 6.703125 -9.457031 6.890625 -9.09375 C 7.085938 -8.738281 7.175781 -8.335938 7.15625 -7.890625 L 5.84375 -7.890625 C 5.851562 -8.285156 5.742188 -8.59375 5.515625 -8.8125 C 5.285156 -9.039062 4.988281 -9.15625 4.625 -9.15625 C 4.238281 -9.15625 3.925781 -9.046875 3.6875 -8.828125 C 3.457031 -8.617188 3.34375 -8.347656 3.34375 -8.015625 C 3.34375 -7.722656 3.421875 -7.441406 3.578125 -7.171875 C 3.734375 -6.898438 4 -6.570312 4.375 -6.1875 L 7.375 -3.171875 L 7.640625 -3.578125 L 8.609375 -5.21875 L 10.03125 -5.21875 L 8.84375 -3.171875 C 8.675781 -2.878906 8.484375 -2.578125 8.265625 -2.265625 L 10.53125 0 Z M 4.046875 -0.953125 C 4.566406 -0.953125 5.035156 -1.050781 5.453125 -1.25 C 5.867188 -1.457031 6.265625 -1.769531 6.640625 -2.1875 L 3.6875 -5.15625 C 2.457031 -4.6875 1.84375 -3.941406 1.84375 -2.921875 C 1.84375 -2.359375 2.046875 -1.890625 2.453125 -1.515625 C 2.859375 -1.140625 3.390625 -0.953125 4.046875 -0.953125 Z M 4.046875 -0.953125 "/></g></g></g><g fill="#1e3a5f" fill-opacity="1"><g transform="translate(88.768917, 15.563071)"><g/></g></g><g fill="#1e3a5f" fill-opacity="1"><g transform="translate(95.758721, 15.563071)"><g><path d="M 4.296875 0.09375 C 3.628906 0.09375 3.035156 -0.0195312 2.515625 -0.25 C 1.992188 -0.488281 1.582031 -0.816406 1.28125 -1.234375 C 0.976562 -1.648438 0.828125 -2.128906 0.828125 -2.671875 L 2.21875 -2.671875 C 2.269531 -2.203125 2.460938 -1.804688 2.796875 -1.484375 C 3.140625 -1.171875 3.640625 -1.015625 4.296875 -1.015625 C 4.921875 -1.015625 5.410156 -1.164062 5.765625 -1.46875 C 6.128906 -1.78125 6.3125 -2.179688 6.3125 -2.671875 C 6.3125 -3.054688 6.203125 -3.367188 5.984375 -3.609375 C 5.773438 -3.847656 5.507812 -4.03125 5.1875 -4.15625 C 4.875 -4.28125 4.453125 -4.414062 3.921875 -4.5625 C 3.253906 -4.738281 2.722656 -4.910156 2.328125 -5.078125 C 1.929688 -5.253906 1.585938 -5.523438 1.296875 -5.890625 C 1.015625 -6.265625 0.875 -6.765625 0.875 -7.390625 C 0.875 -7.941406 1.015625 -8.425781 1.296875 -8.84375 C 1.578125 -9.269531 1.96875 -9.597656 2.46875 -9.828125 C 2.976562 -10.054688 3.554688 -10.171875 4.203125 -10.171875 C 5.148438 -10.171875 5.921875 -9.9375 6.515625 -9.46875 C 7.117188 -9 7.457031 -8.375 7.53125 -7.59375 L 6.09375 -7.59375 C 6.039062 -7.976562 5.835938 -8.316406 5.484375 -8.609375 C 5.128906 -8.898438 4.660156 -9.046875 4.078125 -9.046875 C 3.523438 -9.046875 3.078125 -8.90625 2.734375 -8.625 C 2.390625 -8.34375 2.21875 -7.945312 2.21875 -7.4375 C 2.21875 -7.070312 2.320312 -6.769531 2.53125 -6.53125 C 2.738281 -6.300781 2.992188 -6.125 3.296875 -6 C 3.597656 -5.882812 4.019531 -5.753906 4.5625 -5.609375 C 5.226562 -5.421875 5.757812 -5.238281 6.15625 -5.0625 C 6.5625 -4.882812 6.910156 -4.609375 7.203125 -4.234375 C 7.492188 -3.867188 7.640625 -3.367188 7.640625 -2.734375 C 7.640625 -2.242188 7.507812 -1.78125 7.25 -1.34375 C 6.988281 -0.914062 6.601562 -0.566406 6.09375 -0.296875 C 5.582031 -0.0351562 4.984375 0.09375 4.296875 0.09375 Z M 4.296875 0.09375 "/></g></g></g><g fill="#1e3a5f" fill-opacity="1"><g transform="translate(107.360063, 15.563071)"><g><path d="M 7.296875 -10.046875 L 7.296875 -8.96875 L 4.546875 -8.96875 L 4.546875 0 L 3.234375 0 L 3.234375 -8.96875 L 0.484375 -8.96875 L 0.484375 -10.046875 Z M 7.296875 -10.046875 "/></g></g></g><g fill="#1e3a5f" fill-opacity="1"><g transform="translate(118.298492, 15.563071)"><g><path d="M 6.390625 0 L 4 -4.109375 L 2.421875 -4.109375 L 2.421875 0 L 1.109375 0 L 1.109375 -10.046875 L 4.34375 -10.046875 C 5.101562 -10.046875 5.742188 -9.914062 6.265625 -9.65625 C 6.796875 -9.394531 7.191406 -9.039062 7.453125 -8.59375 C 7.710938 -8.15625 7.84375 -7.65625 7.84375 -7.09375 C 7.84375 -6.394531 7.640625 -5.78125 7.234375 -5.25 C 6.835938 -4.726562 6.242188 -4.378906 5.453125 -4.203125 L 7.96875 0 Z M 2.421875 -5.15625 L 4.34375 -5.15625 C 5.0625 -5.15625 5.597656 -5.328125 5.953125 -5.671875 C 6.304688 -6.023438 6.484375 -6.5 6.484375 -7.09375 C 6.484375 -7.6875 6.304688 -8.144531 5.953125 -8.46875 C 5.609375 -8.789062 5.070312 -8.953125 4.34375 -8.953125 L 2.421875 -8.953125 Z M 2.421875 -5.15625 "/></g></g></g><g fill="#1e3a5f" fill-opacity="1"><g transform="translate(130.202467, 15.563071)"><g><path d="M 7.046875 -2.234375 L 2.671875 -2.234375 L 1.859375 0 L 0.46875 0 L 4.109375 -9.984375 L 5.625 -9.984375 L 9.234375 0 L 7.84375 0 Z M 6.671875 -3.296875 L 4.859375 -8.375 L 3.046875 -3.296875 Z M 6.671875 -3.296875 "/></g></g></g><g fill="#1e3a5f" fill-opacity="1"><g transform="translate(143.057565, 15.563071)"><g><path d="M 7.296875 -10.046875 L 7.296875 -8.96875 L 4.546875 -8.96875 L 4.546875 0 L 3.234375 0 L 3.234375 -8.96875 L 0.484375 -8.96875 L 0.484375 -10.046875 Z M 7.296875 -10.046875 "/></g></g></g><g fill="#1e3a5f" fill-opacity="1"><g transform="translate(153.995995, 15.563071)"><g><path d="M 2.421875 -8.96875 L 2.421875 -5.625 L 6.078125 -5.625 L 6.078125 -4.53125 L 2.421875 -4.53125 L 2.421875 -1.078125 L 6.515625 -1.078125 L 6.515625 0 L 1.109375 0 L 1.109375 -10.0625 L 6.515625 -10.0625 L 6.515625 -8.96875 Z M 2.421875 -8.96875 "/></g></g></g><g fill="#1e3a5f" fill-opacity="1"><g transform="translate(164.53091, 15.563071)"><g><path d="M 8.71875 -7.125 C 8.4375 -7.71875 8.03125 -8.171875 7.5 -8.484375 C 6.976562 -8.804688 6.363281 -8.96875 5.65625 -8.96875 C 4.957031 -8.96875 4.328125 -8.804688 3.765625 -8.484375 C 3.203125 -8.171875 2.757812 -7.710938 2.4375 -7.109375 C 2.113281 -6.503906 1.953125 -5.8125 1.953125 -5.03125 C 1.953125 -4.238281 2.113281 -3.546875 2.4375 -2.953125 C 2.757812 -2.359375 3.203125 -1.898438 3.765625 -1.578125 C 4.328125 -1.253906 4.957031 -1.09375 5.65625 -1.09375 C 6.632812 -1.09375 7.441406 -1.382812 8.078125 -1.96875 C 8.710938 -2.5625 9.082031 -3.351562 9.1875 -4.34375 L 5.1875 -4.34375 L 5.1875 -5.421875 L 10.59375 -5.421875 L 10.59375 -4.40625 C 10.507812 -3.582031 10.242188 -2.828125 9.796875 -2.140625 C 9.359375 -1.453125 8.78125 -0.90625 8.0625 -0.5 C 7.34375 -0.101562 6.539062 0.09375 5.65625 0.09375 C 4.726562 0.09375 3.878906 -0.125 3.109375 -0.5625 C 2.335938 -1 1.726562 -1.609375 1.28125 -2.390625 C 0.84375 -3.171875 0.625 -4.050781 0.625 -5.03125 C 0.625 -6.007812 0.84375 -6.890625 1.28125 -7.671875 C 1.726562 -8.453125 2.335938 -9.0625 3.109375 -9.5 C 3.878906 -9.9375 4.726562 -10.15625 5.65625 -10.15625 C 6.726562 -10.15625 7.671875 -9.890625 8.484375 -9.359375 C 9.304688 -8.835938 9.90625 -8.09375 10.28125 -7.125 Z M 8.71875 -7.125 "/></g></g></g><g fill="#1e3a5f" fill-opacity="1"><g transform="translate(178.884753, 15.563071)"><g><path d="M 2.421875 -10.046875 L 2.421875 0 L 1.109375 0 L 1.109375 -10.046875 Z M 2.421875 -10.046875 "/></g></g></g></g></g><g clip-path="url(#bbb884517e)"><g clip-path="url(#970f10b9e4)"><g clip-path="url(#7c52e51b9a)"><path fill="#1e3a5f" d="M 73.347656 136.375 L 77 142.824219 L 39.675781 206.171875 L 43.707031 206.207031 L 78.976562 146.332031 L 82.628906 152.78125 L 51.117188 206.273438 L 55.144531 206.304688 L 84.613281 156.292969 L 88.265625 162.742188 L 58.796875 212.761719 L 28.5 212.496094 Z M 90.246094 166.25 L 99.527344 182.660156 L 85.4375 206.578125 L 89.472656 206.613281 L 101.515625 186.167969 L 105.164062 192.617188 L 93.121094 213.0625 L 74.265625 212.898438 L 92.117188 182.59375 L 90.132812 179.085938 L 70.234375 212.859375 L 62.828125 212.796875 Z M 107.148438 196.125 L 116.847656 213.273438 L 97.152344 213.101562 Z M 107.148438 196.125 " fill-opacity="1" fill-rule="nonzero"/></g></g></g></svg>
