<svg xmlns="http://www.w3.org/2000/svg" xmlns:xlink="http://www.w3.org/1999/xlink" width="500" zoomAndPan="magnify" viewBox="0 0 375 374.999991" height="500" preserveAspectRatio="xMidYMid meet" version="1.0"><defs><clipPath id="ae08c52ff4"><path d="M 99 108 L 276 108 L 276 263 L 99 263 Z M 99 108 " clip-rule="nonzero"/></clipPath><clipPath id="246c15f143"><path d="M 189.117188 108.53125 L 275.898438 261.933594 L 142.726562 337.269531 L 55.949219 183.863281 Z M 189.117188 108.53125 " clip-rule="nonzero"/></clipPath><clipPath id="6c16784939"><path d="M 189.117188 108.53125 L 275.898438 261.933594 L 142.726562 337.269531 L 55.949219 183.863281 Z M 189.117188 108.53125 " clip-rule="nonzero"/></clipPath></defs><rect x="-37.5" width="450" fill="#ffffff" y="-37.499999" height="449.999989" fill-opacity="1"/><rect x="-37.5" width="450" fill="#ffffff" y="-37.499999" height="449.999989" fill-opacity="1"/><g clip-path="url(#ae08c52ff4)"><g clip-path="url(#246c15f143)"><g clip-path="url(#6c16784939)"><path fill="#1e3a5f" d="M 189.097656 108.539062 L 196.394531 121.429688 L 121.820312 248.011719 L 129.871094 248.085938 L 200.351562 128.4375 L 207.652344 141.324219 L 144.679688 248.210938 L 152.726562 248.28125 L 211.613281 148.339844 L 218.90625 161.226562 L 160.023438 261.179688 L 99.484375 260.648438 Z M 222.867188 168.238281 L 241.417969 201.03125 L 213.261719 248.820312 L 221.320312 248.890625 L 245.390625 208.039062 L 252.679688 220.925781 L 228.613281 261.785156 L 190.9375 261.449219 L 226.609375 200.898438 L 222.644531 193.890625 L 182.882812 261.378906 L 168.078125 261.25 Z M 256.644531 227.933594 L 276.023438 262.199219 L 236.667969 261.859375 Z M 256.644531 227.933594 " fill-opacity="1" fill-rule="nonzero"/></g></g></g></svg>